<svg xmlns="http://www.w3.org/2000/svg" viewBox="0 0 512 512">
	<circle fill="#634396" cx="256" cy="256" r="256"/>
	<circle fill="#ffffff" cx="256" cy="256" r="192"/>
	<g transform="translate(115,115)">
		<path fill="#ff00b3"
			  d="M 80.00,87.00
           C 75.00,82.00 66.89,75.56 63.47,70.00
             55.90,57.74 56.96,35.28 68.09,25.33
             76.35,17.94 85.89,20.36 89.61,17.98
             92.21,16.32 92.73,12.83 98.02,8.21
             106.56,0.74 116.27,-0.12 127.00,0.00
             134.04,0.09 140.50,1.63 145.96,6.33
             153.94,13.18 152.78,18.92 164.00,19.00
             171.46,19.05 185.34,18.42 192.00,20.99
             195.89,22.49 198.83,25.42 202.00,28.00
             202.00,28.00 202.00,23.00 202.00,23.00
             202.19,7.44 215.12,1.19 229.00,0.18
             231.88,-0.03 235.35,0.46 238.00,1.65
             243.95,4.32 259.83,20.09 263.10,26.00
             265.80,30.89 270.97,47.87 265.44,51.98
             264.08,52.99 256.17,53.71 254.00,54.00
             258.60,58.70 260.78,61.01 263.73,67.00
             270.82,81.38 270.75,102.11 253.00,108.24
             248.14,109.92 245.01,109.98 240.00,110.00
             243.17,114.14 245.69,117.89 247.12,123.00
             248.70,129.00 247.79,132.18 247.12,138.00
             245.46,153.89 239.21,164.55 222.00,166.00
             225.54,172.25 227.28,175.63 226.96,183.00
             226.23,199.60 206.68,208.83 192.00,209.00
             175.83,209.18 173.01,205.01 162.00,194.00
             162.00,194.00 151.38,183.00 151.38,183.00
             148.28,179.13 143.70,168.74 140.79,167.02
             138.71,165.80 135.38,166.00 133.00,166.00
             122.77,165.98 98.26,167.47 90.00,163.43
             85.97,161.47 72.38,147.67 68.17,143.58
             56.40,132.11 54.76,106.46 66.33,94.18
             70.06,90.22 74.81,88.22 80.00,87.00 Z
           M 90.00,191.00
           C 94.96,192.22 100.29,192.27 105.00,194.36
             110.68,196.88 115.61,202.62 120.00,207.00
             125.74,212.72 131.11,216.43 134.67,224.00
             141.49,238.47 136.97,263.73 122.00,271.60
             115.78,274.86 106.97,274.08 100.00,274.00
             82.56,273.79 58.63,268.03 44.00,258.46
             37.64,254.30 30.39,247.40 25.00,242.00
             17.23,234.22 9.64,226.33 5.45,216.00
             -1.26,199.45 -0.25,180.50 6.06,164.00
             8.76,156.96 12.51,149.16 19.00,144.97
             25.60,140.70 30.54,140.92 38.00,141.00
             57.14,141.23 65.48,150.47 78.00,163.00
             87.07,172.07 93.32,177.33 90.00,191.00 Z"/>
		<path fill="#ffffff"
			  d="M 227.00,10.48
           C 241.33,9.80 244.54,26.43 240.55,33.96
             238.09,38.59 231.95,40.85 227.00,41.50
             214.03,43.21 209.30,26.84 211.89,20.00
             214.45,13.25 220.62,11.57 227.00,10.48 Z
           M 102.90,32.00
           C 102.42,28.69 101.79,26.35 102.90,23.00
             106.02,12.40 122.83,10.19 132.00,12.94
             142.78,16.17 141.25,25.21 146.22,29.57
             149.37,32.33 153.11,31.99 157.00,32.00
             157.00,32.00 180.00,32.00 180.00,32.00
             184.05,32.06 187.44,32.26 190.44,35.39
             196.60,41.80 196.90,60.56 189.79,66.35
             186.51,69.02 182.98,68.98 179.00,69.00
             179.00,69.00 156.00,69.00 156.00,69.00
             158.90,75.57 163.91,93.70 169.10,97.26
             171.60,98.98 174.11,98.96 177.00,99.00
             177.00,99.00 200.00,99.00 200.00,99.00
             204.14,99.02 208.35,99.05 211.81,101.70
             219.52,107.58 219.85,125.73 213.36,132.58
             208.56,137.66 191.06,136.00 184.00,136.00
             184.00,136.00 193.58,153.00 193.58,153.00
             195.52,156.47 198.04,160.89 197.38,165.00
             195.77,174.97 180.94,180.57 172.00,179.81
             168.85,179.55 164.69,178.35 162.21,176.35
             158.05,172.99 149.49,154.74 146.78,149.00
             141.33,137.45 143.76,136.02 133.00,136.00
             133.00,136.00 88.00,136.00 88.00,136.00
             83.77,135.99 79.80,136.26 76.33,133.35
             68.74,126.99 69.30,107.65 77.11,101.65
             80.56,99.00 83.89,99.02 88.00,99.00
             88.00,99.00 126.00,99.00 126.00,99.00
             122.79,93.21 119.76,85.33 117.67,79.00
             116.81,76.40 115.86,71.57 113.57,70.02
             111.73,68.78 108.18,69.00 106.00,69.00
             106.00,69.00 86.00,69.00 86.00,69.00
             83.22,68.96 80.61,68.92 78.09,67.55
             69.32,62.75 69.00,43.36 74.85,36.34
             79.90,30.28 95.46,32.00 102.90,32.00 Z
           M 227.00,53.48
           C 239.14,52.90 242.48,61.57 240.11,72.00
             239.57,74.40 238.78,77.83 237.28,79.78
             234.90,82.84 229.72,84.19 226.00,84.47
             213.63,85.41 209.43,69.51 211.89,63.00
             214.45,56.25 220.62,54.57 227.00,53.48 Z
           M 31.00,153.64
           C 40.99,151.66 62.33,156.41 60.78,170.00
             59.93,177.39 53.05,183.41 62.11,192.96
             63.29,194.21 64.60,195.36 66.00,196.37
             71.80,200.54 79.99,202.72 87.00,203.72
             93.86,204.69 100.87,204.58 105.28,211.04
             111.19,219.71 107.97,240.72 97.00,244.14
             91.12,246.06 83.98,244.56 78.00,244.14
             56.66,242.38 30.63,236.28 19.35,216.00
             12.37,203.45 12.69,185.45 16.72,172.00
             19.45,162.90 21.61,157.18 31.00,153.64 Z"/>
	</g>
	<g transform="translate(80, 435), scale(0.75)">
		<path fill="#ffffff"
			  d="M 227.00,14.02
			   C 227.00,13.04 228.00,12.01 229.98,11.99
				 232.43,11.99 234.46,12.00 236.00,12.00
				 238.00,12.01 238.00,12.01 238.01,14.00
				 238.01,14.00 238.00,60.00 238.00,60.00
				 239.79,59.86 242.76,60.02 244.00,59.98
				 246.00,57.02 256.38,40.41 257.98,38.00
				 257.98,37.02 258.04,37.04 260.00,37.02
				 262.05,36.98 264.88,37.00 266.97,37.00
				 268.97,39.02 268.98,38.00 267.95,40.05
				 267.95,40.05 254.02,62.09 252.00,65.02
				 255.02,69.04 265.02,84.98 266.04,87.04
				 268.96,91.00 268.96,90.07 267.00,91.98
				 264.86,91.98 262.24,92.04 259.98,92.00
				 258.00,92.02 257.94,91.34 257.93,91.00
				 255.96,88.02 246.96,73.96 244.00,70.04
				 242.60,69.98 239.99,70.07 238.00,70.00
				 238.00,70.00 238.00,89.22 238.00,90.02
				 237.98,92.02 237.98,91.98 235.96,92.04
				 235.96,92.04 232.80,92.00 230.02,92.02
				 227.98,92.02 227.00,90.96 226.98,90.00
				 226.96,89.20 226.74,25.53 227.00,14.02 Z"/>
		<path transform="translate(45, -75), rotate(40), scale(1, 0.75)" fill="#ffffff"
			  d="M 4.94,21.12
			   C 4.94,20.00 6.69,18.88 10.88,19.00
				 15.25,19.19 15.88,21.06 16.94,21.94
				 18.88,28.94 30.88,75.38 31.50,77.56
				 32.25,74.56 45.00,25.69 46.06,21.88
				 47.94,19.94 49.00,18.94 52.44,18.88
				 55.94,18.94 57.91,19.92 57.88,20.94
				 55.69,28.31 41.62,79.06 37.44,92.56
				 35.88,92.69 28.00,92.75 25.56,92.62
				 23.22,90.96 6.06,28.50 4.94,21.12 Z"/>
		<path transform="translate(45, -90), rotate(30)" fill="#ffffff"
			  d="M 100.94,100.12
			   C 100.94,100.25 101.00,92.00 101.00,92.00
				 101.00,92.00 74.00,92.12 74.00,92.12
				 69.12,92.12 65.06,88.12 65.00,83.81
				 64.94,81.75 65.06,45.06 65.00,45.12
				 65.00,39.31 69.00,37.06 74.00,36.94
				 74.00,36.94 103.00,37.00 103.00,37.00
				 108.00,37.12 112.00,40.25 112.06,45.12
				 112.06,45.12 112.06,103.88 112.06,103.88
				 112.12,109.06 109.06,112.12 102.94,112.06
				 102.94,112.06 70.12,112.06 70.12,112.06
				 69.04,111.64 67.94,111.00 67.88,110.00
				 67.94,110.06 67.88,106.12 67.88,105.06
				 67.88,103.06 69.00,102.00 69.94,102.00
				 72.44,102.00 99.88,102.00 99.88,102.00
				 101.00,102.06 100.94,101.94 100.94,100.12 Z
			   M 101.00,51.44
			   C 100.94,47.12 100.94,46.94 97.02,46.99
				 92.43,46.97 85.24,46.96 83.00,47.00
				 76.06,47.06 75.94,47.00 76.00,56.00
				 76.00,56.00 76.00,69.75 76.00,74.00
				 76.06,81.88 76.00,81.94 84.00,82.00
				 84.00,82.00 101.00,82.00 101.00,82.00
				 101.00,82.00 101.00,60.85 101.00,51.44 Z"/>
		<path transform="translate(30, -75), rotate(20)" fill="#ffffff"
			  d="M 131.00,71.00
			   C 131.00,73.71 130.91,77.13 131.00,79.91
				 131.00,81.04 131.96,82.00 133.27,82.00
				 133.27,82.00 162.82,82.00 162.82,82.00
				 164.12,82.02 165.00,83.09 165.09,84.09
				 165.00,86.35 165.00,88.65 165.00,91.00
				 165.04,91.61 164.00,92.04 163.00,92.04
				 163.00,92.04 128.87,92.22 129.00,92.09
				 124.04,91.96 119.96,88.91 120.00,84.00
				 119.96,79.87 120.00,45.36 120.00,45.36
				 120.00,41.00 124.04,36.87 128.91,36.91
				 128.91,36.91 158.91,37.00 158.91,37.00
				 164.04,36.96 167.04,40.17 167.00,45.00
				 167.04,50.83 167.04,56.04 167.00,63.00
				 167.13,68.04 163.91,71.13 157.73,71.18
				 157.73,71.18 131.00,71.00 131.00,71.00 Z
			   M 155.91,48.09
			   C 155.91,47.04 155.96,47.09 153.91,47.09
				 153.91,47.09 134.96,47.09 132.91,47.09
				 131.00,47.04 131.00,47.04 131.00,49.18
				 131.00,49.18 131.00,61.00 131.00,61.00
				 131.00,61.00 152.74,60.96 154.82,60.91
				 155.96,60.96 156.00,60.91 156.00,59.18
				 156.00,58.09 156.00,51.35 155.91,48.09 Z"/>
		<path transform="translate(-10, 57.5), rotate(-15)" fill="#ffffff"
			  d="M 303.00,92.00
			   C 303.00,95.09 303.02,107.56 302.98,110.04
				 302.98,111.00 302.00,112.00 301.00,111.98
				 299.56,112.02 295.69,112.01 294.00,111.98
				 292.98,111.98 292.04,111.02 292.02,109.98
				 292.00,107.04 292.00,51.47 292.02,47.04
				 291.98,40.04 294.98,36.98 301.02,36.98
				 301.02,36.98 328.40,37.00 330.00,37.00
				 336.07,36.96 339.02,40.07 339.00,47.00
				 339.00,47.00 339.02,82.00 339.02,82.00
				 339.02,89.00 336.02,92.04 329.96,92.00
				 329.96,92.00 303.00,92.00 303.00,92.00 Z
			   M 303.00,82.00
			   C 303.00,82.00 327.00,81.98 327.00,81.98
				 327.93,81.98 327.98,81.98 327.98,81.02
				 327.96,80.02 327.98,51.24 327.98,48.98
				 327.96,47.02 327.98,47.04 325.93,47.02
				 322.65,47.02 306.04,47.00 304.02,47.00
				 303.02,47.00 303.00,47.02 303.00,48.02
				 303.00,48.02 303.00,82.00 303.00,82.00 Z"/>
		<path transform="translate(0, 120), rotate(-25)" id="r" fill="#ffffff"
			  d="M 358.98,37.02
			   C 363.60,36.98 371.40,36.90 377.00,37.00
				 378.14,37.03 380.46,37.00 382.01,37.00
				 383.00,37.01 384.01,38.57 384.01,39.01
				 384.01,41.74 384.00,44.26 384.00,45.03
				 383.98,46.00 383.00,47.00 382.00,47.00
				 380.61,47.00 363.97,47.02 363.00,47.03
				 361.00,47.03 361.02,47.02 361.00,48.00
				 360.98,49.42 361.00,88.18 361.00,89.02
				 360.98,91.04 361.01,92.02 359.00,92.00
				 358.31,92.01 355.32,92.01 352.99,92.00
				 350.99,92.00 350.01,92.00 350.00,90.00
				 350.00,90.00 349.98,44.04 349.98,44.04
				 350.00,41.07 352.98,37.00 358.98,37.02 Z"/>
		<path transform="translate(12.5, -50), rotate(10)" fill="#ffffff"
			  d="M 185.06,71.12
				C 185.06,73.83 184.98,77.26 185.06,80.03
				  185.06,81.17 186.02,82.12 187.34,82.12
				  187.34,82.12 216.88,82.12 216.88,82.12
				  218.18,82.15 219.06,83.21 219.15,84.22
				  219.06,86.47 219.06,88.78 219.06,91.12
				  219.11,91.73 218.06,92.17 217.06,92.17
				  217.06,92.17 182.93,92.34 183.06,92.22
				  178.11,92.08 174.02,89.04 174.06,84.12
				  174.02,79.99 174.06,45.49 174.06,45.49
				  174.06,41.12 178.11,36.99 182.97,37.03
				  182.97,37.03 212.97,37.12 212.97,37.12
				  218.11,37.08 221.11,40.30 221.06,45.12
				  221.11,50.95 221.11,56.17 221.06,63.12
				  221.19,68.17 217.98,71.26 211.79,71.31
				  211.79,71.31 185.06,71.12 185.06,71.12 Z
				M 209.92,48.07
				C 209.93,47.02 209.97,47.06 207.92,47.07
				  207.92,47.07 188.97,47.06 186.92,47.07
				  185.01,47.02 185.01,47.02 185.01,49.16
				  185.01,49.16 185.01,60.98 185.01,60.98
				  185.01,60.98 203.98,60.95 208.74,60.89
				  209.98,60.88 209.98,60.88 210.01,59.16
				  210.01,58.06 210.01,51.33 209.92,48.07 Z"/>
		<path transform="translate(25, 180), rotate(-35)" fill="#ffffff"
			  d="M 400.00,92.09
				C 400.00,92.09 427.41,91.97 428.91,92.03
				  435.00,92.09 438.03,89.03 437.97,84.00
				  437.97,84.00 438.03,46.56 438.00,45.00
				  438.00,40.09 435.00,36.97 429.06,37.00
				  429.06,37.00 401.84,37.00 399.97,37.03
				  394.03,37.09 390.84,40.94 390.94,45.03
				  390.94,45.03 390.97,83.97 390.97,83.97
				  391.03,88.94 393.94,92.12 400.00,92.09 Z
				M 402.00,49.02
				C 402.02,47.00 402.02,47.02 403.98,47.02
				  403.98,47.02 424.51,46.98 424.98,47.00
				  426.96,47.02 426.98,47.02 427.00,48.82
				  427.00,48.82 426.98,79.93 427.00,80.82
				  427.00,82.00 427.00,82.00 425.98,82.00
				  425.98,82.00 404.98,82.00 404.00,82.00
				  402.02,81.98 402.02,81.96 402.02,80.00
				  402.02,79.02 402.02,56.07 402.00,49.02 Z"/>
	</g>
</svg>
