<svg xmlns="http://www.w3.org/2000/svg" viewBox="0 0 1089 534">
	<!-- ぶいぎーく！ 縁取り -->
	<!-- - ぶ -->
	<path fill="#ff00b3"
		  d="M 240.00,34.00
           C 240.00,34.00 239.04,25.00 239.04,25.00
             238.43,9.23 251.78,1.60 266.00,1.04
             278.47,0.55 282.50,6.53 290.17,15.00
             299.08,24.86 304.39,28.47 304.96,43.00
             305.30,51.73 302.90,57.72 295.00,62.00
             297.28,65.30 299.94,68.35 301.67,72.00
             307.25,83.74 306.81,97.90 295.00,105.44
             292.28,107.17 289.10,108.41 286.00,109.24
             282.83,110.09 278.24,110.90 275.00,110.52
             267.83,109.68 264.97,106.83 260.00,102.00
             257.57,99.63 254.79,95.94 251.00,97.17
             249.00,97.81 239.38,105.34 237.00,107.13
             237.00,107.13 205.00,130.00 205.00,130.00
             205.00,130.00 224.00,153.00 224.00,153.00
             231.38,140.40 244.43,137.84 258.00,138.00
             275.27,138.21 278.83,144.11 289.88,155.61
             293.39,159.26 297.87,162.42 300.08,167.00
             303.96,175.03 306.96,198.74 306.79,208.00
             307.01,210.24 307.10,213.91 306.79,216.00
             305.78,219.24 298.56,230.20 295.74,232.08
             291.89,234.65 279.86,236.94 275.00,237.00
             269.39,237.06 263.35,237.27 258.00,235.35
             250.27,232.59 243.75,224.75 238.00,219.00
             235.74,245.86 215.17,270.30 190.00,278.92
             179.22,282.62 169.20,283.02 158.00,283.00
             149.62,282.99 129.08,280.32 122.00,276.44
             117.31,273.88 110.96,266.96 107.00,263.00
             102.50,258.50 98.10,255.15 96.00,249.00
             91.23,250.07 85.89,252.06 81.00,251.68
             63.16,250.26 55.77,240.77 44.00,229.00
             34.96,219.96 28.12,213.66 27.37,200.00
             26.85,190.38 33.57,181.28 36.67,172.00
             36.67,172.00 42.48,148.00 42.48,148.00
             47.09,136.50 59.98,130.41 72.00,131.09
             91.12,132.18 98.15,140.13 111.00,153.00
             118.51,160.52 124.56,166.58 123.91,178.00
             123.91,178.00 122.00,194.00 122.00,194.00
             130.89,195.20 140.36,199.54 147.79,191.87
             150.27,189.31 151.56,186.53 151.69,183.00
             152.10,180.86 151.94,178.10 151.69,176.00
             149.14,165.22 142.61,161.23 135.00,154.70
             131.17,151.42 118.45,138.80 115.80,135.00
             110.49,127.41 109.77,113.91 111.47,105.00
             112.64,98.81 115.35,96.54 114.30,93.00
             112.99,88.61 101.14,78.70 97.47,74.72
             91.64,68.38 89.10,59.47 89.00,51.00
             88.77,31.25 95.96,16.03 118.00,16.00
             118.00,16.00 206.00,16.00 206.00,16.00
             222.67,16.03 228.80,22.80 240.00,34.00 Z"/>
	<!-- - い -->
	<path fill="#634396"
		  d="M 344.00,258.00
           C 350.75,254.83 353.50,249.38 362.00,250.20
             373.31,251.28 387.20,265.97 393.10,275.00
             395.56,278.77 398.48,284.38 397.71,289.00
             396.87,294.12 391.60,299.33 387.91,302.73
             381.47,308.67 362.71,326.76 356.00,329.52
             337.83,337.00 321.26,323.63 309.83,311.00
             301.30,301.57 298.25,299.48 293.46,287.00
             288.07,272.97 288.00,257.78 288.00,243.00
             288.00,243.00 288.00,197.00 288.00,197.00
             288.00,197.00 288.00,178.00 288.00,178.00
             288.00,164.79 287.62,156.33 303.00,152.16
             306.12,151.31 308.76,150.90 312.00,151.09
             323.22,151.75 327.47,156.46 335.00,164.00
             337.49,166.49 341.16,169.87 342.69,173.00
             343.95,175.60 343.96,178.19 344.00,181.00
             344.00,181.00 344.00,258.00 344.00,258.00 Z
           M 419.00,189.47
           C 435.80,187.12 438.62,191.86 450.00,202.99
             453.23,206.14 457.06,208.88 459.08,213.01
             462.64,220.27 463.09,230.06 463.00,238.00
             462.93,243.74 461.10,256.69 456.78,260.57
             452.72,264.21 443.30,265.11 438.00,264.99
             425.69,264.70 422.91,261.16 414.99,253.00
             412.20,250.13 409.45,247.77 407.85,244.00
             407.85,244.00 404.20,224.00 404.20,224.00
             401.65,211.03 397.04,199.98 412.00,191.91
             414.63,190.50 416.18,190.14 419.00,189.47 Z"/>
	<!-- - ぎ -->
	<path fill="#ff00b3"
		  d="M 470.00,203.00
           C 465.00,198.00 456.89,191.56 453.47,186.00
             445.90,173.74 446.96,151.28 458.09,141.33
             466.35,133.94 475.89,136.36 479.61,133.98
             482.21,132.32 482.73,128.83 488.02,124.21
             496.56,116.74 506.27,115.88 517.00,116.00
             524.04,116.09 530.50,117.63 535.96,122.33
             543.94,129.18 542.78,134.92 554.00,135.00
             561.46,135.05 575.34,134.42 582.00,136.99
             585.89,138.49 588.83,141.42 592.00,144.00
             592.00,144.00 592.00,139.00 592.00,139.00
             592.19,123.44 605.12,117.19 619.00,116.18
             621.88,115.97 625.35,116.46 628.00,117.65
             633.95,120.32 649.83,136.09 653.10,142.00
             655.80,146.89 660.97,163.87 655.44,167.98
             654.08,168.99 646.17,169.71 644.00,170.00
             648.60,174.70 650.78,177.01 653.73,183.00
             660.82,197.38 660.75,218.11 643.00,224.24
             638.14,225.92 635.01,225.98 630.00,226.00
             633.17,230.14 635.69,233.89 637.12,239.00
             638.70,245.00 637.79,248.18 637.12,254.00
             635.46,269.89 629.21,280.55 612.00,282.00
             615.54,288.25 617.28,291.63 616.96,299.00
             616.23,315.60 596.68,324.83 582.00,325.00
             565.83,325.18 563.01,321.01 552.00,310.00
             552.00,310.00 541.38,299.00 541.38,299.00
             538.28,295.13 533.70,284.74 530.79,283.02
             528.71,281.80 525.38,282.00 523.00,282.00
             512.77,281.98 488.26,283.47 480.00,279.43
             475.97,277.47 462.38,263.67 458.17,259.58
             446.40,248.11 444.76,222.46 456.33,210.18
             460.06,206.22 464.81,204.22 470.00,203.00 Z
           M 480.00,307.00
           C 484.96,308.22 490.29,308.27 495.00,310.36
             500.68,312.88 505.61,318.62 510.00,323.00
             515.74,328.72 521.11,332.43 524.67,340.00
             531.49,354.47 526.97,379.73 512.00,387.60
             505.78,390.86 496.97,390.08 490.00,390.00
             472.56,389.79 448.63,384.03 434.00,374.46
             427.64,370.30 420.39,363.40 415.00,358.00
             407.23,350.22 399.64,342.33 395.45,332.00
             388.74,315.45 389.75,296.50 396.06,280.00
             398.76,272.96 402.51,265.16 409.00,260.97
             415.60,256.70 420.54,256.92 428.00,257.00
             447.14,257.23 455.48,266.47 468.00,279.00
             477.07,288.07 483.32,293.33 480.00,307.00 Z"/>
	<!-- - ーく！ -->
	<path fill="#634396"
		  d="M 907.00,179.00
           C 909.72,161.38 928.54,125.08 936.42,107.00
             936.42,107.00 955.74,65.00 955.74,65.00
             961.18,53.74 963.13,46.79 975.00,39.88
             1001.26,24.58 1040.38,35.98 1058.48,59.00
             1066.46,69.14 1071.16,84.78 1075.68,97.00
             1080.17,109.14 1084.15,116.69 1084.00,130.00
             1083.87,140.78 1079.63,147.59 1075.31,157.00
             1075.31,157.00 1059.26,192.00 1059.26,192.00
             1059.26,192.00 1035.22,244.00 1035.22,244.00
             1035.22,244.00 1021.60,267.00 1021.60,267.00
             1021.60,267.00 1000.28,304.00 1000.28,304.00
             995.80,311.89 981.66,337.70 976.82,342.96
             973.74,346.31 968.20,350.26 964.00,352.05
             954.30,356.16 943.18,355.34 933.00,354.00
             933.00,354.00 944.69,384.00 944.69,384.00
             947.97,393.19 951.88,400.99 952.00,411.00
             952.10,420.08 951.46,426.40 948.19,435.00
             944.16,445.59 937.25,457.32 928.00,464.16
             909.12,477.87 885.61,474.03 866.00,464.16
             858.44,460.48 853.30,457.89 847.01,451.91
             836.61,442.02 833.76,430.90 828.95,418.00
             828.95,418.00 818.23,388.00 818.23,388.00
             817.84,384.58 817.96,379.57 818.23,376.00
             818.23,357.11 831.86,332.59 849.00,324.32
             858.92,319.54 863.41,319.88 874.00,320.00
             883.16,320.11 885.85,322.14 894.00,324.00
             889.88,308.70 876.46,283.34 877.04,269.00
             877.50,257.63 887.20,237.96 890.00,226.00
             890.00,226.00 873.00,215.81 873.00,215.81
             873.00,215.81 834.00,194.00 834.00,194.00
             841.67,208.98 841.00,232.24 823.00,239.52
             819.04,241.12 816.15,240.99 812.00,241.00
             812.00,241.00 669.00,241.00 669.00,241.00
             655.37,240.98 653.32,237.32 644.00,228.00
             635.11,219.11 630.75,214.86 628.76,202.00
             626.42,186.91 635.38,170.20 652.00,170.00
             652.00,170.00 725.00,170.00 725.00,170.00
             725.00,170.00 799.00,170.00 799.00,170.00
             793.10,164.10 787.42,158.78 783.90,151.00
             781.88,146.52 781.41,142.75 780.73,138.00
             778.55,122.72 781.65,107.69 792.44,96.17
             801.28,86.73 820.06,78.72 832.00,72.75
             832.00,72.75 856.00,61.24 856.00,61.24
             864.81,56.91 871.39,52.04 881.00,57.99
             884.45,60.13 891.95,67.78 894.91,71.00
             897.52,73.85 899.49,76.46 901.10,80.00
             904.53,87.58 905.71,97.19 899.61,103.79
             896.76,106.89 889.03,110.23 885.00,112.25
             885.00,112.25 857.00,126.42 857.00,126.42
             857.00,126.42 844.01,133.34 844.01,133.34
             842.62,134.16 840.00,135.69 839.73,137.45
             839.16,141.19 851.92,147.03 855.00,148.69
             855.00,148.69 907.00,179.00 907.00,179.00 Z"/>

	<!-- ぶいぎーく！ 文字部 -->
	<path fill="#ffffff"
		  d="M 261.00,11.53
           C 264.41,10.97 269.71,10.40 272.82,12.17
             278.65,15.51 281.97,29.30 278.26,34.96
             274.61,40.52 267.26,42.31 261.00,41.96
             258.80,41.83 257.04,41.58 255.19,40.26
             249.92,36.50 247.07,23.71 250.17,18.10
             252.27,14.33 257.11,12.68 261.00,11.53 Z
           M 167.00,70.00
           C 167.00,70.00 119.00,70.00 119.00,70.00
             115.52,69.99 112.10,70.27 109.04,68.26
             99.23,61.82 98.65,39.03 107.21,31.42
             111.18,27.88 116.05,28.01 121.00,28.00
             121.00,28.00 203.00,28.00 203.00,28.00
             207.18,28.01 211.11,27.92 215.00,29.77
             225.20,34.59 236.07,54.07 230.55,65.00
             228.08,69.87 221.41,73.82 217.00,77.13
             217.00,77.13 186.00,100.00 186.00,100.00
             183.10,102.07 171.06,110.09 170.62,113.07
             170.19,116.02 175.98,120.11 178.00,122.04
             185.00,128.74 191.43,135.71 196.54,144.00
             216.83,176.88 214.98,224.22 179.00,245.55
             163.90,254.49 143.86,254.98 127.00,252.25
             121.67,251.38 113.12,250.58 109.21,246.77
             100.44,238.24 104.41,212.62 115.02,207.17
             120.77,204.22 127.96,208.48 135.00,208.91
             157.74,210.30 168.96,188.87 162.48,169.00
             157.29,153.08 143.81,142.47 131.04,132.71
             124.86,127.98 123.19,123.65 123.01,116.00
             122.92,111.80 123.07,106.77 125.14,103.00
             127.66,98.42 133.76,94.61 138.00,91.58
             144.70,86.79 162.44,75.08 167.00,70.00 Z
           M 262.00,54.47
           C 265.16,54.03 269.03,53.50 271.98,55.02
             278.12,58.18 281.99,70.84 278.83,76.98
             276.54,81.43 271.69,83.65 267.00,84.53
             263.71,85.16 259.09,85.37 256.09,83.69
             249.50,79.99 247.17,66.55 250.31,61.18
             252.70,57.11 257.70,55.49 262.00,54.47 Z
           M 998.00,54.46
           C 1019.56,51.48 1047.46,66.45 1048.91,90.00
             1049.39,97.80 1045.01,105.16 1041.78,112.00
             1041.78,112.00 1026.25,146.00 1026.25,146.00
             1026.25,146.00 1006.03,190.00 1006.03,190.00
             1006.03,190.00 993.42,212.00 993.42,212.00
             993.42,212.00 971.01,251.00 971.01,251.00
             971.01,251.00 947.47,290.79 947.47,290.79
             934.02,305.52 896.93,292.00 898.78,269.00
             899.15,264.40 902.71,255.87 904.33,251.00
             904.33,251.00 916.31,216.00 916.31,216.00
             916.31,216.00 930.66,174.00 930.66,174.00
             930.66,174.00 936.45,157.00 936.45,157.00
             936.45,157.00 945.69,137.00 945.69,137.00
             945.69,137.00 961.22,103.00 961.22,103.00
             961.22,103.00 972.69,78.00 972.69,78.00
             975.02,72.92 977.34,66.32 981.33,62.33
             985.62,58.03 992.19,55.76 998.00,54.46 Z
           M 870.00,63.73
           C 881.14,63.02 887.60,79.40 883.15,85.79
             880.97,88.91 872.66,92.42 869.00,94.25
             869.00,94.25 835.00,111.31 835.00,111.31
             829.05,114.52 820.54,118.71 819.23,126.00
             817.04,138.17 826.84,143.01 836.00,147.74
             851.75,155.87 881.98,172.02 895.98,181.44
             898.24,182.96 900.23,184.40 901.26,187.04
             903.88,193.79 897.47,206.12 891.00,208.77
             885.61,210.97 882.33,208.20 878.00,205.33
             878.00,205.33 861.00,194.60 861.00,194.60
             861.00,194.60 815.00,168.85 815.00,168.85
             800.83,160.77 789.21,152.96 789.00,135.00
             788.90,126.10 788.08,118.11 792.52,110.00
             799.86,96.57 812.09,92.21 825.00,85.75
             825.00,85.75 870.00,63.73 870.00,63.73 Z
           M 617.00,126.44
           C 632.55,124.84 633.75,144.44 630.83,149.96
             628.41,154.50 621.82,156.78 617.00,157.52
             602.93,159.69 599.87,141.02 601.74,136.00
             604.21,129.35 610.80,127.59 617.00,126.44 Z
           M 493.00,148.00
           C 489.45,133.40 500.24,128.54 513.00,128.04
             519.41,127.79 525.34,128.75 529.58,134.04
             533.57,139.01 532.85,144.75 536.30,146.98
             538.21,148.21 541.76,148.00 544.00,148.00
             544.00,148.00 569.00,148.00 569.00,148.00
             572.52,148.01 575.78,147.74 578.82,149.89
             587.11,155.76 587.24,176.15 579.79,182.57
             577.04,184.94 574.41,184.95 571.00,185.00
             571.00,185.00 546.00,185.00 546.00,185.00
             546.00,185.00 553.80,206.00 553.80,206.00
             554.80,208.48 556.09,212.50 558.39,213.98
             560.18,215.13 562.94,214.99 565.00,215.00
             565.00,215.00 590.00,215.00 590.00,215.00
             594.85,215.01 598.93,214.82 602.70,218.39
             609.70,224.81 609.63,243.03 602.70,249.43
             598.01,253.63 580.58,252.00 574.00,252.00
             574.00,252.00 583.30,269.00 583.30,269.00
             585.08,272.26 587.68,276.17 587.63,280.00
             587.48,292.65 563.68,299.41 554.04,293.72
             550.01,291.34 548.22,286.90 546.00,283.00
             542.42,276.71 533.21,258.47 532.00,252.00
             532.00,252.00 477.00,252.00 477.00,252.00
             473.69,251.99 470.03,252.29 467.14,250.26
             458.73,244.23 459.00,223.81 467.14,217.51
             470.18,215.12 473.30,215.05 477.00,215.00
             477.00,215.00 516.00,215.00 516.00,215.00
             512.91,209.03 506.00,191.36 505.00,185.00
             505.00,185.00 477.00,185.00 477.00,185.00
             473.50,184.99 470.20,185.26 467.19,183.11
             459.21,177.42 459.05,158.17 465.56,151.39
             470.53,146.21 485.94,148.00 493.00,148.00 Z
           M 64.00,144.31
           C 67.62,143.93 71.34,143.82 75.00,144.31
             77.79,144.29 80.40,144.89 83.00,145.93
             88.24,148.03 92.68,151.28 94.16,157.00
             95.10,160.61 93.73,166.30 93.00,170.00
             90.86,180.88 89.87,184.50 86.33,195.00
             83.81,202.50 77.06,219.36 69.00,221.57
             56.78,224.92 38.36,212.38 39.64,198.00
             40.08,192.97 44.90,185.13 46.99,180.00
             46.99,180.00 50.58,169.00 50.58,169.00
             53.49,158.41 51.28,148.61 64.00,144.31 Z
           M 251.00,150.31
           C 253.87,150.07 256.09,149.86 259.00,150.31
             274.30,151.81 274.19,160.67 275.09,173.00
             275.09,173.00 276.02,182.00 276.02,182.00
             276.42,187.88 278.53,194.53 274.85,199.82
             271.10,205.21 264.08,206.71 258.00,207.55
             254.96,208.01 253.05,208.09 250.00,207.55
             237.68,205.32 236.71,199.93 235.91,189.00
             235.91,189.00 234.83,177.00 234.83,177.00
             234.31,171.63 232.63,162.77 235.74,158.04
             239.14,152.85 245.33,151.50 251.00,150.31 Z
           M 308.00,159.48
           C 313.57,158.94 321.86,160.12 324.26,166.04
             325.13,168.20 325.00,171.65 325.00,174.00
             325.00,174.00 325.00,250.00 325.00,250.00
             325.01,256.46 326.59,274.51 334.04,276.68
             337.43,277.67 341.79,273.07 344.00,270.96
             351.28,264.01 356.99,254.09 368.00,260.99
             370.17,262.36 371.85,263.95 373.36,266.02
             380.54,275.81 376.31,280.25 369.00,287.09
             369.00,287.09 358.00,297.17 358.00,297.17
             350.10,304.31 344.49,312.46 333.00,311.96
             317.77,311.30 306.76,298.14 301.45,285.00
             295.65,270.64 295.87,252.33 296.00,237.00
             296.00,237.00 296.00,202.00 296.00,202.00
             296.00,202.00 296.00,175.00 296.00,175.00
             296.01,171.56 295.73,168.05 297.74,165.05
             300.28,161.25 303.84,160.39 308.00,159.48 Z
           M 617.00,169.44
           C 624.93,168.62 631.28,173.58 631.35,182.00
             631.37,184.27 630.35,186.80 629.74,189.00
             629.12,191.25 628.68,194.60 627.18,196.35
             625.06,198.82 619.16,200.18 616.00,200.52
             602.85,201.94 599.91,183.93 601.74,179.00
             604.21,172.35 610.80,170.59 617.00,169.44 Z
           M 649.01,180.70
           C 654.39,179.48 661.38,180.00 667.00,180.00
             667.00,180.00 698.00,180.00 698.00,180.00
             698.00,180.00 796.00,180.00 796.00,180.00
             800.93,180.01 804.85,179.81 808.79,183.39
             816.92,190.78 815.80,208.12 806.98,214.49
             803.15,217.26 799.47,216.99 795.00,217.00
             795.00,217.00 658.00,217.00 658.00,217.00
             652.89,216.99 649.27,217.17 645.10,213.61
             635.19,205.13 637.15,186.28 649.01,180.70 Z
           M 420.00,197.29
           C 422.61,197.10 424.32,196.90 427.00,197.29
             437.79,197.61 437.90,207.49 439.60,216.00
             441.64,226.21 447.30,242.50 433.00,245.80
             431.07,246.03 428.01,246.04 426.00,245.80
             412.79,245.62 414.47,235.88 412.75,226.00
             410.68,214.07 404.18,202.48 420.00,197.29 Z
           M 421.00,269.53
           C 429.80,268.09 449.88,272.05 451.15,283.00
             451.62,287.10 448.85,291.16 447.79,295.00
             445.79,302.20 449.21,308.16 455.00,312.37
             460.93,316.67 469.79,318.95 477.00,319.85
             483.43,320.64 490.67,320.38 494.87,326.18
             500.47,333.91 498.35,352.39 490.81,358.35
             487.04,361.34 482.53,361.05 478.00,361.00
             478.00,361.00 468.00,360.08 468.00,360.08
             446.94,358.40 423.22,352.64 410.75,334.00
             401.96,320.86 402.18,300.46 407.44,286.00
             410.33,278.03 412.34,272.31 421.00,269.53 Z
           M 864.00,341.53
           C 881.58,338.66 911.05,350.85 916.21,369.00
             919.97,382.22 910.78,402.66 900.00,410.36
             895.46,413.61 889.56,415.23 884.00,414.91
             870.65,414.13 849.47,404.58 842.48,393.00
             834.13,379.18 842.15,355.92 854.01,346.39
             857.12,343.89 860.24,342.64 864.00,341.53 Z"/>

	<!-- vgeek production -->
	<!-- 背景 -->
	<rect x="5" y="395" width="817" height="123" fill="#ff00b3"/>
	<!-- 文字部 -->
	<path fill="#ffffff"
		  d="M 247.00,409.02
           C 247.00,408.04 248.00,407.01 249.98,406.99
             252.43,406.99 254.46,407.00 256.00,407.00
             258.00,407.01 258.00,407.01 258.01,409.00
             258.01,409.00 258.00,455.00 258.00,455.00
             259.79,454.86 262.76,455.02 264.00,454.98
             266.00,452.02 276.38,435.41 277.98,433.00
             277.98,432.02 278.04,432.04 280.00,432.02
             282.05,431.98 284.88,432.00 286.97,432.00
             288.97,434.02 288.98,433.00 287.95,435.05
             287.95,435.05 274.02,457.09 272.00,460.02
             275.02,464.04 285.02,479.98 286.04,482.04
             288.96,486.00 288.96,485.07 287.00,486.98
             284.86,486.98 282.24,487.04 279.98,487.00
             278.00,487.02 277.94,486.34 277.93,486.00
             275.96,483.02 266.96,468.96 264.00,465.04
             262.60,464.98 259.99,465.07 258.00,465.00
             258.00,465.00 258.00,484.22 258.00,485.02
             257.98,487.02 257.98,486.98 255.96,487.04
             255.96,487.04 252.80,487.00 250.02,487.02
             247.98,487.02 247.00,485.96 246.98,485.00
             246.96,484.20 246.74,420.53 247.00,409.02 Z
           M 504.00,432.00
           C 504.00,429.42 503.91,414.22 503.91,409.04
             503.87,407.09 503.91,407.04 506.00,407.00
             507.35,407.00 510.96,406.96 512.96,407.00
             514.96,407.04 514.96,407.00 515.00,409.13
             515.00,409.13 515.04,479.00 515.04,479.00
             515.04,483.00 511.96,486.91 506.09,487.00
             506.09,487.00 477.04,487.04 477.04,487.04
             470.96,486.91 467.96,483.96 467.91,479.00
             467.91,479.00 467.96,440.04 467.96,440.04
             467.96,435.04 471.13,432.04 477.00,432.00
             477.00,432.00 504.00,432.00 504.00,432.00 Z
           M 639.00,432.00
           C 639.00,428.81 639.00,415.58 638.98,413.04
             638.98,412.62 640.02,411.02 641.02,411.00
             642.00,410.98 646.09,411.00 646.98,411.02
             647.41,411.02 650.00,412.07 650.00,413.98
             650.02,419.04 649.96,429.29 649.96,432.00
             652.37,432.00 657.29,431.98 658.98,432.00
             659.29,432.01 660.98,433.02 660.98,434.02
             660.99,435.29 661.00,438.04 661.00,440.04
             660.98,441.00 660.00,442.00 659.00,441.98
             657.36,442.00 652.14,442.00 650.00,442.00
             650.00,442.00 649.98,476.02 649.98,476.02
             650.00,476.98 650.02,476.98 650.98,476.96
             652.02,476.98 656.38,476.98 658.07,476.98
             660.00,476.98 660.96,478.04 661.00,480.04
             660.99,480.84 661.00,483.69 661.00,485.00
             661.00,486.00 660.00,486.98 659.00,486.98
             658.09,486.96 649.56,486.98 646.98,487.02
             641.07,487.11 638.93,484.04 639.00,479.07
             639.00,479.07 639.00,442.00 639.00,442.00
             637.28,441.99 633.40,441.98 632.00,441.98
             631.71,441.98 630.00,440.98 629.98,440.02
             629.96,438.46 629.98,435.78 630.00,434.04
             630.00,433.00 631.02,432.00 631.98,432.00
             633.98,432.00 637.01,432.01 639.00,432.00 Z
           M 24.94,416.12
           C 24.94,415.00 26.69,413.88 30.88,414.00
             35.25,414.19 35.88,416.06 36.94,416.94
             38.88,423.94 50.88,470.38 51.50,472.56
             52.25,469.56 65.00,420.69 66.06,416.88
             67.94,414.94 69.00,413.94 72.44,413.88
             75.94,413.94 77.91,414.92 77.88,415.94
             75.69,423.31 61.62,474.06 57.44,487.56
             55.88,487.69 48.00,487.75 45.56,487.62
             43.22,485.96 26.06,423.50 24.94,416.12 Z
           M 674.00,416.04
           C 674.00,415.00 673.98,415.00 674.98,414.98
             676.91,414.96 682.98,415.02 682.98,415.02
             684.02,415.04 683.96,415.01 683.97,416.06
             683.98,418.12 684.03,421.59 684.00,423.02
             683.96,424.02 684.02,423.98 683.00,424.02
             680.89,424.04 677.04,424.00 674.98,424.02
             674.00,424.02 673.99,423.36 674.00,423.02
             673.98,421.56 674.00,417.92 674.00,416.04 Z
           M 120.94,495.12
           C 120.94,495.25 121.00,487.00 121.00,487.00
             121.00,487.00 94.00,487.12 94.00,487.12
             89.12,487.12 85.06,483.12 85.00,478.81
             84.94,476.75 85.06,440.06 85.00,440.12
             85.00,434.31 89.00,432.06 94.00,431.94
             94.00,431.94 123.00,432.00 123.00,432.00
             128.00,432.12 132.00,435.25 132.06,440.12
             132.06,440.12 132.06,498.88 132.06,498.88
             132.12,504.06 129.06,507.12 122.94,507.06
             122.94,507.06 90.12,507.06 90.12,507.06
             89.04,506.64 87.94,506.00 87.88,505.00
             87.94,505.06 87.88,501.12 87.88,500.06
             87.88,498.06 89.00,497.00 89.94,497.00
             92.44,497.00 119.88,497.00 119.88,497.00
             121.00,497.06 120.94,496.94 120.94,495.12 Z
           M 151.00,466.00
           C 151.00,468.71 150.91,472.13 151.00,474.91
             151.00,476.04 151.96,477.00 153.27,477.00
             153.27,477.00 182.82,477.00 182.82,477.00
             184.12,477.02 185.00,478.09 185.09,479.09
             185.00,481.35 185.00,483.65 185.00,486.00
             185.04,486.61 184.00,487.04 183.00,487.04
             183.00,487.04 148.87,487.22 149.00,487.09
             144.04,486.96 139.96,483.91 140.00,479.00
             139.96,474.87 140.00,440.36 140.00,440.36
             140.00,436.00 144.04,431.87 148.91,431.91
             148.91,431.91 178.91,432.00 178.91,432.00
             184.04,431.96 187.04,435.17 187.00,440.00
             187.04,445.83 187.04,451.04 187.00,458.00
             187.13,463.04 183.91,466.13 177.73,466.18
             177.73,466.18 151.00,466.00 151.00,466.00 Z
           M 323.00,487.00
           C 323.00,490.09 323.02,502.56 322.98,505.04
             322.98,506.00 322.00,507.00 321.00,506.98
             319.56,507.02 315.69,507.01 314.00,506.98
             312.98,506.98 312.04,506.02 312.02,504.98
             312.00,502.04 312.00,446.47 312.02,442.04
             311.98,435.04 314.98,431.98 321.02,431.98
             321.02,431.98 348.40,432.00 350.00,432.00
             356.07,431.96 359.02,435.07 359.00,442.00
             359.00,442.00 359.02,477.00 359.02,477.00
             359.02,484.00 356.02,487.04 349.96,487.00
             349.96,487.00 323.00,487.00 323.00,487.00 Z
           M 378.98,432.02
           C 383.60,431.98 391.40,431.90 397.00,432.00
             398.14,432.03 400.46,432.00 402.01,432.00
             403.00,432.01 404.01,433.57 404.01,434.01
             404.01,436.74 404.00,439.26 404.00,440.03
             403.98,441.00 403.00,442.00 402.00,442.00
             400.61,442.00 383.97,442.02 383.00,442.03
             381.00,442.03 381.02,442.02 381.00,443.00
             380.98,444.42 381.00,483.18 381.00,484.02
             380.98,486.04 381.01,487.02 379.00,487.00
             378.31,487.01 375.32,487.01 372.99,487.00
             370.99,487.00 370.01,487.00 370.00,485.00
             370.00,485.00 369.98,439.04 369.98,439.04
             370.00,436.07 372.98,432.00 378.98,432.02 Z
           M 563.98,431.98
           C 564.93,431.99 568.69,431.98 570.02,432.02
             572.00,432.02 572.00,433.02 572.00,434.98
             572.00,434.98 571.98,477.04 571.98,477.04
             572.02,484.09 569.04,487.07 562.98,487.04
             562.98,487.04 533.98,487.00 533.98,487.00
             528.02,487.00 524.88,483.97 524.97,477.09
             524.97,477.09 524.98,434.02 524.98,434.02
             525.02,433.02 526.02,432.02 527.00,432.00
             528.00,432.00 532.89,432.00 534.00,432.00
             534.98,432.02 535.98,433.02 536.00,434.02
             536.00,434.02 536.00,475.98 536.00,475.98
             536.00,476.92 536.00,476.98 536.98,477.00
             538.01,476.99 558.79,476.99 559.98,476.98
             560.99,476.99 560.98,477.00 560.99,475.99
             560.98,474.99 560.93,436.84 560.98,434.07
             561.00,433.00 562.00,432.02 563.98,431.98 Z
           M 592.03,432.00
           C 594.38,432.03 616.56,431.91 623.00,431.97
             623.94,432.00 624.94,432.09 624.94,433.16
             624.94,435.34 624.97,438.19 624.97,440.03
             624.94,440.94 623.94,442.09 623.00,442.12
             618.61,442.21 599.56,442.00 596.03,442.06
             594.03,442.06 594.06,442.12 594.03,444.12
             594.03,444.12 594.03,475.00 594.03,475.00
             594.00,476.97 594.09,476.97 595.97,476.97
             597.16,476.97 621.69,477.00 622.94,477.03
             624.97,477.03 624.97,477.03 624.97,479.09
             625.00,481.50 625.00,484.29 624.94,486.00
             624.91,486.94 623.48,487.06 622.91,487.06
             621.69,487.06 594.56,487.09 591.94,487.09
             586.00,486.97 582.88,483.00 582.94,479.00
             582.94,479.00 583.00,440.12 583.00,440.12
             583.00,435.19 586.09,432.03 592.03,432.00 Z
           M 674.00,442.00
           C 672.13,442.00 667.60,441.98 665.98,442.00
             665.68,441.99 664.00,441.02 663.98,440.00
             663.96,438.61 663.98,435.60 664.00,434.04
             664.00,433.02 665.00,432.02 665.98,432.02
             667.67,432.00 680.93,432.00 682.00,431.98
             682.98,432.02 683.98,433.00 683.98,434.04
             683.98,434.04 684.00,482.75 683.97,485.03
             684.00,486.03 683.03,487.00 682.03,487.00
             680.50,487.06 677.49,487.03 675.97,487.03
             674.03,487.00 673.98,486.00 673.96,485.09
             673.96,485.09 674.00,442.00 674.00,442.00 Z
           M 797.00,487.00
           C 795.66,487.03 792.75,487.02 790.98,487.02
             789.00,487.02 788.00,485.46 788.00,485.03
             788.00,485.03 788.00,443.97 788.00,443.97
             788.00,442.02 787.98,442.03 786.02,442.00
             784.28,442.02 770.21,441.98 765.00,442.02
             763.98,442.03 763.02,442.02 763.00,443.03
             762.98,446.42 763.00,485.00 763.00,485.00
             763.00,486.03 761.97,487.00 760.97,487.00
             759.19,487.06 754.96,487.10 753.94,487.03
             753.00,487.03 751.98,485.71 752.00,485.00
             752.00,485.00 751.94,441.97 751.94,441.97
             751.84,436.06 754.00,431.94 761.03,431.97
             770.16,431.94 786.95,432.03 789.91,432.03
             796.06,431.97 799.03,435.00 799.06,442.03
             799.06,442.03 799.02,482.48 798.98,484.02
             798.97,485.98 798.00,487.02 797.00,487.00 Z
           M 121.00,446.44
           C 120.94,442.12 120.94,441.94 117.02,441.99
             112.43,441.97 105.24,441.96 103.00,442.00
             96.06,442.06 95.94,442.00 96.00,451.00
             96.00,451.00 96.00,464.75 96.00,469.00
             96.06,476.88 96.00,476.94 104.00,477.00
             104.00,477.00 121.00,477.00 121.00,477.00
             121.00,477.00 121.00,455.85 121.00,446.44 Z
           M 175.91,443.09
           C 175.91,442.04 175.96,442.09 173.91,442.09
             173.91,442.09 154.96,442.09 152.91,442.09
             151.00,442.04 151.00,442.04 151.00,444.18
             151.00,444.18 151.00,456.00 151.00,456.00
             151.00,456.00 172.74,455.96 174.82,455.91
             175.96,455.96 176.00,455.91 176.00,454.18
             176.00,453.09 176.00,446.35 175.91,443.09 Z
           M 323.00,477.00
           C 323.00,477.00 347.00,476.98 347.00,476.98
             347.93,476.98 347.98,476.98 347.98,476.02
             347.96,475.02 347.98,446.24 347.98,443.98
             347.96,442.02 347.98,442.04 345.93,442.02
             342.65,442.02 326.04,442.00 324.02,442.00
             323.02,442.00 323.00,442.02 323.00,443.02
             323.00,443.02 323.00,477.00 323.00,477.00 Z
           M 504.00,476.02
           C 504.00,471.45 504.00,442.00 504.00,442.00
             504.00,442.00 480.98,442.02 480.00,442.03
             479.02,442.02 479.02,442.02 479.00,443.02
             479.00,443.02 479.00,474.34 479.00,475.00
             479.00,476.97 479.02,476.97 480.02,476.98
             480.02,476.98 503.00,477.00 503.00,477.00
             503.97,477.00 503.98,476.98 504.00,476.02 Z
           M 706.05,444.02
           C 706.07,442.00 706.07,442.02 708.02,442.02
             708.02,442.02 728.56,441.98 729.02,442.00
             731.00,442.02 731.02,442.02 731.05,443.82
             731.05,443.82 731.02,474.93 731.05,475.82
             731.05,477.00 731.05,477.00 730.02,477.00
             730.02,477.00 709.02,477.00 708.05,477.00
             706.07,476.98 706.07,476.96 706.07,475.00
             706.07,474.02 706.07,451.07 706.05,444.02 Z
           M 704.05,487.09
           C 704.05,487.09 731.45,486.97 732.95,487.03
             739.05,487.09 742.08,484.03 742.01,479.00
             742.01,479.00 742.08,441.56 742.05,440.00
             742.05,435.09 739.05,431.97 733.11,432.00
             733.11,432.00 705.89,432.00 704.01,432.03
             698.08,432.09 694.89,435.94 694.98,440.03
             694.98,440.03 695.01,478.97 695.01,478.97
             695.08,483.94 697.98,487.12 704.05,487.09 Z
           M 205.06,466.12
           C 205.06,468.83 204.98,472.26 205.06,475.03
             205.06,476.17 206.02,477.12 207.34,477.12
             207.34,477.12 236.88,477.12 236.88,477.12
             238.18,477.15 239.06,478.21 239.15,479.22
             239.06,481.47 239.06,483.78 239.06,486.12
             239.11,486.73 238.06,487.17 237.06,487.17
             237.06,487.17 202.93,487.34 203.06,487.22
             198.11,487.08 194.02,484.04 194.06,479.12
             194.02,474.99 194.06,440.49 194.06,440.49
             194.06,436.12 198.11,431.99 202.97,432.03
             202.97,432.03 232.97,432.12 232.97,432.12
             238.11,432.08 241.11,435.30 241.06,440.12
             241.11,445.95 241.11,451.17 241.06,458.12
             241.19,463.17 237.98,466.26 231.79,466.31
             231.79,466.31 205.06,466.12 205.06,466.12 Z
           M 229.92,443.07
           C 229.93,442.02 229.97,442.06 227.92,442.07
             227.92,442.07 208.97,442.06 206.92,442.07
             205.01,442.02 205.01,442.02 205.01,444.16
             205.01,444.16 205.01,455.98 205.01,455.98
             205.01,455.98 223.98,455.95 228.74,455.89
             229.98,455.88 229.98,455.88 230.01,454.16
             230.01,453.06 230.01,446.33 229.92,443.07 Z
           M 422.00,444.02
           C 422.02,442.00 422.02,442.02 423.98,442.02
             423.98,442.02 444.51,441.98 444.98,442.00
             446.96,442.02 446.98,442.02 447.00,443.82
             447.00,443.82 446.98,474.93 447.00,475.82
             447.00,477.00 447.00,477.00 445.98,477.00
             445.98,477.00 424.98,477.00 424.00,477.00
             422.02,476.98 422.02,476.96 422.02,475.00
             422.02,474.02 422.02,451.07 422.00,444.02 Z
           M 420.00,487.09
           C 420.00,487.09 447.41,486.97 448.91,487.03
             455.00,487.09 458.03,484.03 457.97,479.00
             457.97,479.00 458.03,441.56 458.00,440.00
             458.00,435.09 455.00,431.97 449.06,432.00
             449.06,432.00 421.84,432.00 419.97,432.03
             414.03,432.09 410.84,435.94 410.94,440.03
             410.94,440.03 410.97,478.97 410.97,478.97
             411.03,483.94 413.94,487.12 420.00,487.09 Z"/>
</svg>
