<svg xmlns="http://www.w3.org/2000/svg" version="2.0"
	 viewBox="0 0 8 8" width="24" height="24">
	<path fill="currentColor" fill-rule="evenodd" id="iphone-15"
		  d="
		  M 3.073170731707317, 1.0
		  h 1.8536585365853657
		  q 0.5284552845528456,0 0.5284552845528456,0.5284552845528456
		  v 4.943089430894309
		  q 0,0.5284552845528456 -0.5284552845528456,0.5284552845528456
		  h -1.8536585365853657
		  q -0.5284552845528456,0 -0.5284552845528456,-0.5284552845528456
		  v -4.943089430894309
		  q 0,-0.5284552845528456 0.5284552845528456,-0.5284552845528456
		  Z
		  M 3.1951219512195124, 1.08130081300813
		  h 1.6097560975609753
		  q 0.5284552845528456,0 0.5284552845528456,0.5284552845528456
		  v 4.739837398373984
		  q 0,0.5284552845528456 -0.5284552845528456,0.5284552845528456
		  h -1.6097560975609753
		  q -0.5284552845528456,0 -0.5284552845528456,-0.5284552845528456
		  v -4.739837398373984
		  q 0,-0.5284552845528456 0.5284552845528456,-0.5284552845528456
		  Z
		  M 3.6829268292682933, 1.1626016260162602
		  h 0.5691056910569107
		  q 0.12195121951219513,0 0.12195121951219513,0.12195121951219513
		  v 0.0
		  q 0,0.12195121951219513 -0.12195121951219513,0.12195121951219513
		  h -0.5691056910569107
		  q -0.12195121951219513,0 -0.12195121951219513,-0.12195121951219513
		  v -0.0
		  q 0,-0.12195121951219513 0.12195121951219513,-0.12195121951219513
		  Z"/>
</svg>
