<svg xmlns="http://www.w3.org/2000/svg" version="2.0"
	 viewBox="0 0 8 8" width="24" height="24">
	<path fill="currentColor" fill-rule="evenodd" id="google-pixel-7-pro"
		  d="
		  M 2.6813996317, 1
		  h 2.6372007367
		  q 0.1841620626,0 0.1841620626,0.1841620626
		  v 5.8158379374
		  q 0,0.1841620626 -0.1841620626,0.1841620626
		  h -2.6372007367
		  q -0.1841620626,0 -0.1841620626,-0.1841620626
		  v -5.8158379374
		  q 0,-0.1841620626 0.1841620626,-0.1841620626
		  Z
		  M 2.7734806630, 1.0736648250
		  h 2.4530386741
		  q 0.1841620626,0 0.1841620626,0.1841620626
		  v 5.6316758748
		  q 0,0.1841620626 -0.1841620626,0.1841620626
		  h -2.4530386741
		  q -0.1841620626,0 -0.1841620626,-0.1841620626
		  v -5.6316758748
		  q 0,-0.1841620626 0.1841620626,-0.1841620626
		  Z
		  M 4,1.1289134438
		  a 0.0736648250 0.0736648250 0 0 1 0 0.1473296501
		  a 0.0736648250 0.0736648250 0 0 1 0 -0.1473296501
		  Z"/>
	<path fill="currentColor" fill-rule="evenodd"
		  d="
		  M 3.350480947161671, 3.25
		  l 1.299038105676658, 0.75
		    -1.299038105676658, 0.75
		  Z"/>
</svg>
