<svg xmlns="http://www.w3.org/2000/svg" version="2.0"
	 viewBox="0 0 8 8" width="24" height="24">
	<circle fill="currentColor" cx="4" cy="4" r=".75"/>
	<path fill="currentColor" fill-rule="evenodd"
		  d="
		  M 5.25,2.75
		  a 2,2 0 0 1 0 2.5
		  l -.25, -.125
		  a 2.5,2 0 0 0 0 -2.25
		  Z
		  M 2.75,2.75
		  a 2,2 0 0 0 0 2.5
		  l .25, -.125
		  a 2.5,2 0 0 1 0 -2.25
		  Z
		  M 6,2.25
		  a 3,3 0 0 1 0 3.5
		  l -.25, -.125
		  a 3.5,3 0 0 0 0 -3.25
		  Z
		  M 2,2.25
		  a 3,3 0 0 0 0 3.5
		  l .25, -.125
		  a 3.5,3 0 0 1 0 -3.25
		  Z
		  M 6.75,1.75
		  a 4,4 0 0 1 0 4.5
		  l -.25, -.125
		  a 4.5,4 0 0 0 0 -4.25
		  Z
		  M 1.25,1.75
		  a 4,4 0 0 0 0 4.5
		  l .25, -.125
		  a 4.5,4 0 0 1 0 -4.25
		  Z"/>
</svg>
