<svg xmlns="http://www.w3.org/2000/svg" version="2.0"
	 viewBox="0 0 8 8" width="24" height="24">
	<path fill="currentColor" fill-rule="evenodd"
		  d="
		  M 2.0,2.0
		  H 2.5
		  V 1.5
		  H 3.0
		  V 2.0
		  H 5.0
		  V 1.5
		  H 5.5
		  V 2.0
		  H 6.5
		  Q 7.0,2.0 7.0,2.5
		  V 7.0
		  H 1.0
		  V 2.5
		  Q 1.0,2.0 1.5,2.0
		  Z
		  M 1.2,3
		  H 6.8
		  V 6.8
		  H 1.2
		  Z"/>
	<circle fill="currentColor"
			cx="3.25" cy="4.75" r=".5"/>
	<path fill="currentColor" fill-rule="evenodd" d="
		  M 4.25,4
		  a 1,1 0 0 1 0 1.5
		  l -.25, -.125
		  a 1.5,1 0 0 0 0 -1.25
		  Z
		  M 5,3.5
		  a 2,2 0 0 1 0 2.5
		  l -.25, -.125
		  a 2.5,2 0 0 0 0 -2.25
		  Z"/>
</svg>
